<?xml version="1.0" encoding="utf-8"?>
<!-- Generator: Adobe Illustrator 19.2.1, SVG Export Plug-In . SVG Version: 6.00 Build 0)  -->
<svg version="1.1" id="Layer_1" xmlns="http://www.w3.org/2000/svg" xmlns:xlink="http://www.w3.org/1999/xlink" x="0px" y="0px"
	 viewBox="0 0 150 32" style="enable-background:new 0 0 150 32;" xml:space="preserve">
<g style="opacity:0.3;">
	<defs>
		<rect id="SVGID_1_" x="-150" y="66.3" style="opacity:0.3;" width="1440" height="440"/>
	</defs>
	<clipPath id="SVGID_2_">
		<use xlink:href="#SVGID_1_"  style="overflow:visible;"/>
	</clipPath>
</g>
<g>
	<g>
		<circle style="fill:#030C14;" cx="18.3" cy="16" r="6.3"/>
		<path style="fill:#030C14;" d="M36,14.1L36,14.1L29.3,1.8h0c-0.6-1.1-1.7-1.8-3-1.8h-16C9,0,7.9,0.7,7.3,1.8h0L0.6,14.1v0
			C0.2,14.7,0,15.3,0,16c0,0.7,0.2,1.4,0.6,1.9l6.7,12.3h0c0.6,1.1,1.7,1.8,3,1.8c0,0,8.9,0,13.5,0c1.1,0,1.8-1.3,1.2-2.2l-2.7-4.3
			c-0.3-0.5-1-0.8-1.5-0.6c-1.8,0.5-3.8,0.5-5.9-0.4c-2.7-1.1-4.9-3.6-5.5-6.4C8,11.6,13.4,5.9,19.8,7c3.8,0.6,6.9,3.8,7.5,7.6
			c0.4,2.8-0.4,5.3-2,7.2c-0.4,0.5-0.5,1.2-0.2,1.7l2.9,4.5c0.6,0.9,2,0.9,2.5-0.1L36,17.9c0.4-0.5,0.6-1.2,0.6-1.9
			C36.6,15.3,36.4,14.7,36,14.1z"/>
	</g>
	<g>
		<path style="fill:#030C14;" d="M46,13.3v8.9c0,0.7-0.5,1.2-1.2,1.2c-0.7,0-1.2-0.5-1.2-1.2v-8.9c0-0.7,0.5-1.3,1.2-1.3
			C45.5,12,46,12.5,46,13.3L46,13.3z M46,9.7c0,0.7-0.5,1.3-1.2,1.3c-0.7,0-1.2-0.6-1.2-1.3v0c0-0.7,0.5-1.2,1.2-1.2
			C45.5,8.5,46,9.1,46,9.7L46,9.7L46,9.7z"/>
		<path style="fill:#030C14;" d="M49.1,17.7c0-3.2,2.6-5.7,5.8-5.7c1.4,0,2.6,0.5,3.6,1.3c0.5,0.4,0.6,1.2,0.3,1.7
			c-0.5,0.5-1.2,0.6-1.7,0.2c-0.6-0.4-1.3-0.7-2.2-0.7c-1.8,0-3.4,1.5-3.4,3.3c0,1.8,1.5,3.3,3.4,3.3c0.8,0,1.6-0.3,2.2-0.7
			c0.5-0.4,1.3-0.3,1.7,0.3c0.4,0.5,0.3,1.2-0.3,1.7c-1,0.7-2.3,1.2-3.6,1.2C51.8,23.4,49.1,20.8,49.1,17.7L49.1,17.7z"/>
		<path style="fill:#030C14;" d="M64.6,17.7c0,1,0.3,1.8,0.8,2.4c0.6,0.5,1.3,0.8,2.2,0.8c0.8,0,1.5-0.3,2.1-0.8
			c0.6-0.6,0.9-1.4,0.9-2.4c0-0.9-0.3-1.8-0.9-2.4c-0.6-0.5-1.3-0.9-2.1-0.9c-0.9,0-1.6,0.4-2.2,0.9C64.9,15.9,64.6,16.8,64.6,17.7
			L64.6,17.7z M63.6,21.7c-1-1-1.6-2.4-1.6-4c0-1.5,0.6-2.9,1.6-4c1-1.1,2.3-1.7,3.9-1.7c1.5,0,2.9,0.7,3.8,1.7c1,1.1,1.6,2.4,1.6,4
			c0,1.6-0.6,3-1.6,4c-0.9,1.1-2.3,1.7-3.8,1.7C66,23.4,64.7,22.8,63.6,21.7L63.6,21.7z"/>
		<path style="fill:#030C14;" d="M86.3,16.7v5.4c0,0.7-0.5,1.2-1.2,1.2c-0.6,0-1.2-0.5-1.2-1.2v-5.4c0-1.3-1.1-2.3-2.4-2.3
			c-1.3,0-2.3,1-2.3,2.3v5.4c0,0.1,0,0.1,0,0.2c-0.1,0.5-0.6,1-1.2,1c-0.7,0-1.2-0.5-1.2-1.2v-5.4v-3.5c0-0.7,0.5-1.2,1.2-1.2
			c0.5,0,0.9,0.3,1.1,0.7c0.7-0.4,1.5-0.7,2.4-0.7C84.2,12,86.3,14.1,86.3,16.7L86.3,16.7z"/>
		<path style="fill:#030C14;" d="M90.3,20.1c0.4-0.5,1.2-0.6,1.7-0.2c0.6,0.5,1.6,1,2.5,1c0.6,0,1.2-0.2,1.5-0.4
			c0.3-0.3,0.4-0.5,0.4-0.7c0-0.1,0-0.2-0.1-0.2c0-0.1-0.1-0.2-0.3-0.3c-0.3-0.2-1-0.5-1.8-0.6h0c-0.7-0.1-1.4-0.3-2-0.6
			c-0.6-0.3-1.2-0.7-1.6-1.3c-0.3-0.4-0.4-0.9-0.4-1.4c0-1,0.6-1.9,1.3-2.5c0.8-0.5,1.8-0.8,2.8-0.8c1.6,0,2.7,0.8,3.4,1.3
			c0.5,0.4,0.7,1.1,0.4,1.7c-0.4,0.5-1.1,0.7-1.7,0.3c-0.7-0.5-1.4-0.8-2.1-0.8c-0.6,0-1.1,0.2-1.4,0.4c-0.3,0.2-0.4,0.4-0.4,0.5
			c0,0.1,0,0.1,0,0.2c0,0,0.1,0.1,0.3,0.2c0.3,0.2,0.9,0.4,1.7,0.5l0,0h0c0.8,0.1,1.5,0.3,2.1,0.7c0.6,0.3,1.2,0.7,1.6,1.3
			c0.3,0.5,0.4,1,0.4,1.5c0,1.1-0.6,2.1-1.4,2.6c-0.8,0.6-1.8,0.9-3,0.9c-1.8,0-3.1-0.8-4.1-1.6C89.9,21.4,89.9,20.6,90.3,20.1
			L90.3,20.1z"/>
		<path style="fill:#030C14;" d="M101.2,17.7c0-3.2,2.6-5.7,5.8-5.7c1.4,0,2.6,0.5,3.6,1.3c0.5,0.4,0.6,1.2,0.3,1.7
			c-0.5,0.5-1.2,0.6-1.7,0.2c-0.6-0.4-1.3-0.7-2.2-0.7c-1.8,0-3.4,1.5-3.4,3.3c0,1.8,1.5,3.3,3.4,3.3c0.8,0,1.6-0.3,2.2-0.7
			c0.5-0.4,1.3-0.3,1.7,0.3c0.4,0.5,0.3,1.2-0.3,1.7c-1,0.7-2.3,1.2-3.6,1.2C103.9,23.4,101.2,20.8,101.2,17.7L101.2,17.7z"/>
		<path style="fill:#030C14;" d="M116.6,17.7c0,1,0.3,1.8,0.8,2.4c0.6,0.5,1.3,0.8,2.2,0.8c0.8,0,1.5-0.3,2.1-0.8
			c0.6-0.6,0.9-1.4,0.9-2.4c0-0.9-0.3-1.8-0.9-2.4c-0.6-0.5-1.3-0.9-2.1-0.9c-0.9,0-1.6,0.4-2.2,0.9
			C116.9,15.9,116.6,16.8,116.6,17.7L116.6,17.7z M115.7,21.7c-1-1-1.6-2.4-1.6-4c0-1.5,0.6-2.9,1.6-4c1-1.1,2.3-1.7,3.9-1.7
			c1.5,0,2.9,0.7,3.8,1.7c1,1.1,1.6,2.4,1.6,4c0,1.6-0.6,3-1.6,4c-0.9,1.1-2.3,1.7-3.8,1.7C118.1,23.4,116.8,22.8,115.7,21.7
			L115.7,21.7z"/>
		<path style="fill:#030C14;" d="M133.1,23.4c-2.6,0-4.7-2.1-4.7-4.7v-5.4c0-0.6,0.5-1.2,1.2-1.2c0.7,0,1.2,0.6,1.2,1.2v5.4
			c0,1.3,1,2.3,2.3,2.3c1.3,0,2.4-1,2.4-2.3v-5.4c0-0.6,0.5-1.2,1.2-1.2c0.6,0,1.2,0.6,1.2,1.2v5.4
			C137.9,21.2,135.7,23.4,133.1,23.4L133.1,23.4z"/>
		<path style="fill:#030C14;" d="M148.2,13.2c0,0.7-0.6,1.3-1.3,1.3h-1.1v6.4c0.7,0,1.3,0.6,1.3,1.3c0,0.7-0.5,1.3-1.3,1.3
			c-1.4,0-2.5-1.1-2.5-2.5v-6.4h-1.1c-0.7,0-1.3-0.6-1.3-1.3c0-0.7,0.5-1.3,1.3-1.3h1.1V9.7c0-0.7,0.6-1.3,1.3-1.3
			c0.7,0,1.3,0.5,1.3,1.3V12h1.1C147.6,12,148.2,12.5,148.2,13.2L148.2,13.2z"/>
	</g>
</g>
</svg>
